<?xml version="1.0" encoding="UTF-8"?>
<!--Generator: Apple Native CoreSVG 175.5-->
<!DOCTYPE svg
PUBLIC "-//W3C//DTD SVG 1.1//EN"
       "http://www.w3.org/Graphics/SVG/1.1/DTD/svg11.dtd">
<svg version="1.1" xmlns="http://www.w3.org/2000/svg" xmlns:xlink="http://www.w3.org/1999/xlink" width="3300" height="2200">
 <!--glyph: "", point size: 100.0, font version: "18.0d12e2", template writer version: "101"-->
 <g id="Notes">
  <rect height="2200" id="artboard" style="fill:white;opacity:1" width="3300" x="0" y="0"/>
  <line style="fill:none;stroke:black;opacity:1;stroke-width:0.5;" x1="263" x2="3036" y1="292" y2="292"/>
  <text style="stroke:none;fill:black;font-family:sans-serif;font-size:13;font-weight:bold;" transform="matrix(1 0 0 1 263 322)">Weight/Scale Variations</text>
  <text style="stroke:none;fill:black;font-family:sans-serif;font-size:13;text-anchor:middle;" transform="matrix(1 0 0 1 559.711 322)">Ultralight</text>
  <text style="stroke:none;fill:black;font-family:sans-serif;font-size:13;text-anchor:middle;" transform="matrix(1 0 0 1 856.422 322)">Thin</text>
  <text style="stroke:none;fill:black;font-family:sans-serif;font-size:13;text-anchor:middle;" transform="matrix(1 0 0 1 1153.13 322)">Light</text>
  <text style="stroke:none;fill:black;font-family:sans-serif;font-size:13;text-anchor:middle;" transform="matrix(1 0 0 1 1449.84 322)">Regular</text>
  <text style="stroke:none;fill:black;font-family:sans-serif;font-size:13;text-anchor:middle;" transform="matrix(1 0 0 1 1746.56 322)">Medium</text>
  <text style="stroke:none;fill:black;font-family:sans-serif;font-size:13;text-anchor:middle;" transform="matrix(1 0 0 1 2043.27 322)">Semibold</text>
  <text style="stroke:none;fill:black;font-family:sans-serif;font-size:13;text-anchor:middle;" transform="matrix(1 0 0 1 2339.98 322)">Bold</text>
  <text style="stroke:none;fill:black;font-family:sans-serif;font-size:13;text-anchor:middle;" transform="matrix(1 0 0 1 2636.69 322)">Heavy</text>
  <text style="stroke:none;fill:black;font-family:sans-serif;font-size:13;text-anchor:middle;" transform="matrix(1 0 0 1 2933.4 322)">Black</text>
  <line style="fill:none;stroke:black;opacity:1;stroke-width:0.5;" x1="263" x2="3036" y1="1903" y2="1903"/>
  <g transform="matrix(1 0 0 1 263 1933)">
   <path d="M9.24805 0.830078C13.5547 0.830078 17.1387-2.74414 17.1387-7.05078C17.1387-11.3574 13.5449-14.9316 9.23828-14.9316C4.94141-14.9316 1.36719-11.3574 1.36719-7.05078C1.36719-2.74414 4.95117 0.830078 9.24805 0.830078ZM9.24805-0.654297C5.70312-0.654297 2.87109-3.49609 2.87109-7.05078C2.87109-10.6055 5.69336-13.4473 9.23828-13.4473C12.793-13.4473 15.6445-10.6055 15.6445-7.05078C15.6445-3.49609 12.8027-0.654297 9.24805-0.654297ZM5.6543-7.05078C5.6543-6.62109 5.95703-6.32812 6.40625-6.32812L8.50586-6.32812L8.50586-4.20898C8.50586-3.76953 8.79883-3.4668 9.22852-3.4668C9.67773-3.4668 9.9707-3.76953 9.9707-4.20898L9.9707-6.32812L12.0898-6.32812C12.5293-6.32812 12.832-6.62109 12.832-7.05078C12.832-7.49023 12.5293-7.79297 12.0898-7.79297L9.9707-7.79297L9.9707-9.90234C9.9707-10.3516 9.67773-10.6543 9.22852-10.6543C8.79883-10.6543 8.50586-10.3516 8.50586-9.90234L8.50586-7.79297L6.40625-7.79297C5.95703-7.79297 5.6543-7.49023 5.6543-7.05078Z"/>
  </g>
  <g transform="matrix(1 0 0 1 281.867 1933)">
   <path d="M11.709 2.91016C17.1582 2.91016 21.6699-1.61133 21.6699-7.05078C21.6699-12.5 17.1484-17.0117 11.6992-17.0117C6.25977-17.0117 1.74805-12.5 1.74805-7.05078C1.74805-1.61133 6.26953 2.91016 11.709 2.91016ZM11.709 1.25C7.09961 1.25 3.41797-2.44141 3.41797-7.05078C3.41797-11.6602 7.08984-15.3516 11.6992-15.3516C16.3086-15.3516 20.0098-11.6602 20.0098-7.05078C20.0098-2.44141 16.3184 1.25 11.709 1.25ZM7.17773-7.05078C7.17773-6.57227 7.50977-6.25 8.00781-6.25L10.8789-6.25L10.8789-3.36914C10.8789-2.88086 11.2109-2.53906 11.6895-2.53906C12.1777-2.53906 12.5195-2.87109 12.5195-3.36914L12.5195-6.25L15.4004-6.25C15.8887-6.25 16.2305-6.57227 16.2305-7.05078C16.2305-7.53906 15.8887-7.88086 15.4004-7.88086L12.5195-7.88086L12.5195-10.752C12.5195-11.25 12.1777-11.5918 11.6895-11.5918C11.2109-11.5918 10.8789-11.25 10.8789-10.752L10.8789-7.88086L8.00781-7.88086C7.50977-7.88086 7.17773-7.53906 7.17773-7.05078Z"/>
  </g>
  <g transform="matrix(1 0 0 1 305.646 1933)">
   <path d="M14.9707 5.66406C21.9336 5.66406 27.6953-0.0976562 27.6953-7.05078C27.6953-14.0137 21.9238-19.7754 14.9609-19.7754C8.00781-19.7754 2.25586-14.0137 2.25586-7.05078C2.25586-0.0976562 8.01758 5.66406 14.9707 5.66406ZM14.9707 3.84766C8.93555 3.84766 4.08203-1.01562 4.08203-7.05078C4.08203-13.0957 8.92578-17.9492 14.9609-17.9492C21.0059-17.9492 25.8691-13.0957 25.8691-7.05078C25.8691-1.01562 21.0156 3.84766 14.9707 3.84766ZM9.19922-7.05078C9.19922-6.5332 9.57031-6.17188 10.1172-6.17188L14.0625-6.17188L14.0625-2.2168C14.0625-1.67969 14.4336-1.29883 14.9512-1.29883C15.4883-1.29883 15.8594-1.66992 15.8594-2.2168L15.8594-6.17188L19.8145-6.17188C20.3516-6.17188 20.7324-6.5332 20.7324-7.05078C20.7324-7.59766 20.3613-7.96875 19.8145-7.96875L15.8594-7.96875L15.8594-11.9141C15.8594-12.4609 15.4883-12.8418 14.9512-12.8418C14.4336-12.8418 14.0625-12.4609 14.0625-11.9141L14.0625-7.96875L10.1172-7.96875C9.57031-7.96875 9.19922-7.59766 9.19922-7.05078Z"/>
  </g>
  <text style="stroke:none;fill:black;font-family:sans-serif;font-size:13;font-weight:bold;" transform="matrix(1 0 0 1 263 1953)">Design Variations</text>
  <text style="stroke:none;fill:black;font-family:sans-serif;font-size:13;" transform="matrix(1 0 0 1 263 1971)">Symbols are supported in up to nine weights and three scales.</text>
  <text style="stroke:none;fill:black;font-family:sans-serif;font-size:13;" transform="matrix(1 0 0 1 263 1989)">For optimal layout with text and other symbols, vertically align</text>
  <text style="stroke:none;fill:black;font-family:sans-serif;font-size:13;" transform="matrix(1 0 0 1 263 2007)">symbols with the adjacent text.</text>
  <line style="fill:none;stroke:#00AEEF;stroke-width:0.5;opacity:1.0;" x1="776" x2="776" y1="1919" y2="1933"/>
  <g transform="matrix(1 0 0 1 776 1933)">
   <path d="M3.31055 0.15625C3.82812 0.15625 4.08203-0.0390625 4.26758-0.585938L5.52734-4.0332L11.2891-4.0332L12.5488-0.585938C12.7344-0.0390625 12.9883 0.15625 13.4961 0.15625C14.0137 0.15625 14.3457-0.15625 14.3457-0.644531C14.3457-0.810547 14.3164-0.966797 14.2383-1.17188L9.6582-13.3691C9.43359-13.9648 9.0332-14.2676 8.4082-14.2676C7.80273-14.2676 7.39258-13.9746 7.17773-13.3789L2.59766-1.16211C2.51953-0.957031 2.49023-0.800781 2.49023-0.634766C2.49023-0.146484 2.80273 0.15625 3.31055 0.15625ZM6.00586-5.51758L8.37891-12.0898L8.42773-12.0898L10.8008-5.51758Z"/>
  </g>
  <line style="fill:none;stroke:#00AEEF;stroke-width:0.5;opacity:1.0;" x1="793.197" x2="793.197" y1="1919" y2="1933"/>
  <text style="stroke:none;fill:black;font-family:sans-serif;font-size:13;font-weight:bold;" transform="matrix(1 0 0 1 776 1953)">Margins</text>
  <text style="stroke:none;fill:black;font-family:sans-serif;font-size:13;" transform="matrix(1 0 0 1 776 1971)">Leading and trailing margins on the left and right side of each symbol</text>
  <text style="stroke:none;fill:black;font-family:sans-serif;font-size:13;" transform="matrix(1 0 0 1 776 1989)">can be adjusted by modifying the x-location of the margin guidelines.</text>
  <text style="stroke:none;fill:black;font-family:sans-serif;font-size:13;" transform="matrix(1 0 0 1 776 2007)">Modifications are automatically applied proportionally to all</text>
  <text style="stroke:none;fill:black;font-family:sans-serif;font-size:13;" transform="matrix(1 0 0 1 776 2025)">scales and weights.</text>
  <g transform="matrix(1 0 0 1 1289 1933)">
   <path d="M2.8418 1.86523L4.54102 3.57422C5.40039 4.44336 6.38672 4.38477 7.31445 3.35938L18.0078-8.42773L17.041-9.4043L6.42578 2.27539C6.07422 2.67578 5.74219 2.77344 5.27344 2.30469L4.10156 1.14258C3.63281 0.683594 3.74023 0.341797 4.14062-0.0195312L15.6152-10.8203L14.6387-11.7871L3.04688-0.898438C2.06055 0.0195312 1.98242 0.996094 2.8418 1.86523ZM9.25781-16.3281C8.83789-15.918 8.80859-15.3418 9.04297-14.9512C9.27734-14.5898 9.73633-14.3555 10.3809-14.5215C11.8457-14.8633 13.3691-14.9219 14.7949-13.9844L14.209-12.5293C13.8672-11.6992 14.043-11.1133 14.5801-10.5664L16.875-8.25195C17.3633-7.76367 17.7734-7.74414 18.3398-7.8418L19.4043-8.03711L20.0684-7.36328L20.0293-6.80664C19.9902-6.30859 20.1172-5.92773 20.6055-5.44922L21.3672-4.70703C21.8457-4.22852 22.4609-4.19922 22.9297-4.66797L25.8398-7.58789C26.3086-8.05664 26.2891-8.65234 25.8105-9.13086L25.0391-9.89258C24.5605-10.3711 24.1895-10.5273 23.7109-10.4883L23.1348-10.4395L22.4902-11.0742L22.7344-12.1973C22.8613-12.7637 22.7051-13.2031 22.1191-13.7891L19.9219-15.9766C16.582-19.2969 12.1484-19.2188 9.25781-16.3281ZM10.752-15.957C13.1836-17.7344 16.4746-17.4316 18.7012-15.2051L21.1328-12.793C21.3672-12.5586 21.4062-12.373 21.3379-12.0312L21.0156-10.5469L22.5195-9.0625L23.5059-9.12109C23.7598-9.13086 23.8379-9.11133 24.0332-8.91602L24.6094-8.33984L22.168-5.89844L21.5918-6.47461C21.3965-6.66992 21.3672-6.74805 21.377-7.01172L21.4453-7.98828L19.9512-9.47266L18.4277-9.21875C18.1055-9.15039 17.959-9.17969 17.7148-9.41406L15.7129-11.416C15.459-11.6504 15.4297-11.8164 15.5859-12.1875L16.4648-14.2773C14.9023-15.7324 12.8711-16.3574 10.8398-15.7617C10.6836-15.7227 10.625-15.8496 10.752-15.957Z"/>
  </g>
  <text style="stroke:none;fill:black;font-family:sans-serif;font-size:13;font-weight:bold;" transform="matrix(1 0 0 1 1289 1953)">Exporting</text>
  <text style="stroke:none;fill:black;font-family:sans-serif;font-size:13;" transform="matrix(1 0 0 1 1289 1971)">Symbols should be outlined when exporting to ensure the</text>
  <text style="stroke:none;fill:black;font-family:sans-serif;font-size:13;" transform="matrix(1 0 0 1 1289 1989)">design is preserved when submitting to Xcode.</text>
  <text id="template-version" style="stroke:none;fill:black;font-family:sans-serif;font-size:13;text-anchor:end;" transform="matrix(1 0 0 1 3036 1933)">Template v.4.0</text>
  <text style="stroke:none;fill:black;font-family:sans-serif;font-size:13;text-anchor:end;" transform="matrix(1 0 0 1 3036 1951)">Requires Xcode 14 or greater</text>
  <text id="descriptive-name" style="stroke:none;fill:black;font-family:sans-serif;font-size:13;text-anchor:end;" transform="matrix(1 0 0 1 3036 1969)">Generated from custom.lock.shield</text>
  <text style="stroke:none;fill:black;font-family:sans-serif;font-size:13;text-anchor:end;" transform="matrix(1 0 0 1 3036 1987)">Typeset at 100 points</text>
  <text style="stroke:none;fill:black;font-family:sans-serif;font-size:13;" transform="matrix(1 0 0 1 263 726)">Small</text>
  <text style="stroke:none;fill:black;font-family:sans-serif;font-size:13;" transform="matrix(1 0 0 1 263 1156)">Medium</text>
  <text style="stroke:none;fill:black;font-family:sans-serif;font-size:13;" transform="matrix(1 0 0 1 263 1586)">Large</text>
 </g>
 <g id="Guides">
  <g id="H-reference" style="fill:#27AAE1;stroke:none;" transform="matrix(1 0 0 1 339 696)">
   <path d="M0.993654 0L3.63775 0L29.3281-67.1323L30.0303-67.1323L30.0303-70.459L28.1226-70.459ZM11.6885-24.4799L46.9815-24.4799L46.2315-26.7285L12.4385-26.7285ZM55.1196 0L57.7637 0L30.6382-70.459L29.4326-70.459L29.4326-67.1323Z"/>
  </g>
  <line id="Baseline-S" style="fill:none;stroke:#27AAE1;opacity:1;stroke-width:0.5;" x1="263" x2="3036" y1="696" y2="696"/>
  <line id="Capline-S" style="fill:none;stroke:#27AAE1;opacity:1;stroke-width:0.5;" x1="263" x2="3036" y1="625.541" y2="625.541"/>
  <g id="H-reference" style="fill:#27AAE1;stroke:none;" transform="matrix(1 0 0 1 339 1126)">
   <path d="M0.993654 0L3.63775 0L29.3281-67.1323L30.0303-67.1323L30.0303-70.459L28.1226-70.459ZM11.6885-24.4799L46.9815-24.4799L46.2315-26.7285L12.4385-26.7285ZM55.1196 0L57.7637 0L30.6382-70.459L29.4326-70.459L29.4326-67.1323Z"/>
  </g>
  <line id="Baseline-M" style="fill:none;stroke:#27AAE1;opacity:1;stroke-width:0.5;" x1="263" x2="3036" y1="1126" y2="1126"/>
  <line id="Capline-M" style="fill:none;stroke:#27AAE1;opacity:1;stroke-width:0.5;" x1="263" x2="3036" y1="1055.54" y2="1055.54"/>
  <g id="H-reference" style="fill:#27AAE1;stroke:none;" transform="matrix(1 0 0 1 339 1556)">
   <path d="M0.993654 0L3.63775 0L29.3281-67.1323L30.0303-67.1323L30.0303-70.459L28.1226-70.459ZM11.6885-24.4799L46.9815-24.4799L46.2315-26.7285L12.4385-26.7285ZM55.1196 0L57.7637 0L30.6382-70.459L29.4326-70.459L29.4326-67.1323Z"/>
  </g>
  <line id="Baseline-L" style="fill:none;stroke:#27AAE1;opacity:1;stroke-width:0.5;" x1="263" x2="3036" y1="1556" y2="1556"/>
  <line id="Capline-L" style="fill:none;stroke:#27AAE1;opacity:1;stroke-width:0.5;" x1="263" x2="3036" y1="1485.54" y2="1485.54"/>
  <line id="left-margin-Regular-M" style="fill:none;stroke:#00AEEF;stroke-width:0.5;opacity:1.0;" x1="1390.48" x2="1390.48" y1="1030.79" y2="1150.12"/>
  <line id="right-margin-Regular-M" style="fill:none;stroke:#00AEEF;stroke-width:0.5;opacity:1.0;" x1="1509.21" x2="1509.21" y1="1030.79" y2="1150.12"/>
 </g>
 <g id="Symbols">
  <g id="Black-L" transform="matrix(1 0 0 1 2857.05 1556)">
   <path d="M78.8767 31.6149C80.2953 31.6149 82.2541 30.994 83.9542 30.1506C121.494 11.5163 135.062 0.566417 135.062-22.4652L135.062-68.1745C135.062-78.5713 131.947-83.0981 122.67-87.0861C117.242-89.4014 94.7031-96.6385 89.8586-98.1609C86.4772-99.191 82.1817-99.8268 78.8767-99.8268C75.5717-99.8268 71.2553-99.091 67.8947-98.1609C63.0515-96.8587 40.5111-89.3806 35.0827-87.0861C25.8066-83.1201 22.6918-78.5713 22.6918-68.1745L22.6918-22.4652C22.6918 0.566417 36.2627 11.4883 73.7992 30.1506C75.4992 30.994 77.458 31.6149 78.8767 31.6149ZM78.8767 11.978C78.3181 11.978 77.8143 11.8452 76.1318 10.8237C48.3791-6.45883 40.8206-9.68072 40.8206-24.9448L40.8206-65.9687C40.8206-68.407 41.4438-69.4784 43.2337-70.2297C51.7691-73.701 68.1389-79.0178 72.997-80.7554C75.799-81.6088 77.2953-81.9861 78.8767-81.9861C80.4581-81.9861 81.9519-81.6076 84.7552-80.7554C89.5925-79.0178 105.9-73.5761 114.499-70.2297C116.31-69.4992 116.912-68.407 116.912-65.9687L116.912-24.9448C116.912-9.2135 107.949-4.59341 81.6007 10.8237C79.939 11.7868 79.4353 11.978 78.8767 11.978ZM56.892-15.2468C56.892-10.2236 59.1993-7.87576 63.8776-7.87576L93.9318-7.87576C98.5517-7.87576 100.859-10.2236 100.859-15.2468L100.859-38.0566C100.859-41.9839 99.3358-44.2732 96.4219-44.9198L96.4219-50.9217C96.4219-62.5067 89.2961-70.3323 78.8755-70.3323C68.4353-70.3323 61.3887-62.5067 61.3887-50.9217L61.3887-44.9782C58.4152-44.2732 56.892-41.9839 56.892-38.0566ZM71.5442-45.291L71.5442-51.3635C71.5442-56.8646 74.3762-60.4145 78.8755-60.4145C83.4343-60.4145 86.2664-56.923 86.2664-51.3635L86.2664-45.291Z"/>
  </g>
  <g id="Heavy-L" transform="matrix(1 0 0 1 2560.42 1556)">
   <path d="M77.9302 31.1862C79.2556 31.1862 81.1317 30.6078 82.8058 29.7544C119.895 10.7738 133.133 0.451591 133.133-22.4805L133.133-68.762C133.133-78.2849 130.097-82.2366 121.725-85.8194C115.722-88.356 93.103-95.8332 87.5402-97.6451C84.563-98.565 80.8729-99.1456 77.9302-99.1456C74.9874-99.1456 71.2671-98.46 68.32-97.6451C62.7629-96.0968 40.1387-88.3257 34.1299-85.8194C25.7629-82.2725 22.7275-78.2849 22.7275-68.762L22.7275-22.4805C22.7275 0.451591 35.9818 10.7099 73.0544 29.7544C74.7285 30.6078 76.6046 31.1862 77.9302 31.1862ZM77.9302 13.6679C77.2662 13.6679 76.6301 13.4766 74.9168 12.449C46.8388-4.96707 38.7842-8.65266 38.7842-24.8699L38.7842-66.6583C38.7842-69.0837 39.3739-70.1291 41.186-70.8877C49.8826-74.3948 66.9163-80.0013 72.8129-82.1887C75.1904-82.9401 76.556-83.2661 77.9302-83.2661C79.3042-83.2661 80.6586-82.9345 83.0418-82.1887C88.9082-80.0013 105.851-74.2137 114.644-70.8877C116.486-70.1593 117.046-69.0837 117.046-66.6583L117.046-24.8699C117.046-8.2957 107.909-3.55599 80.9132 12.449C79.2301 13.4319 78.5941 13.6679 77.9302 13.6679ZM55.7535-14.4164C55.7535-9.445 58.0096-7.1341 62.6179-7.1341L93.2758-7.1341C97.8394-7.1341 100.096-9.445 100.096-14.4164L100.096-37.792C100.096-41.8595 98.4957-44.1256 95.3638-44.6625L95.3638-51.0543C95.3638-62.6155 88.2871-70.398 77.9245-70.398C67.5373-70.398 60.5354-62.6155 60.5354-51.0543L60.5354-44.7071C57.3534-44.1256 55.7535-41.8595 55.7535-37.792ZM69.7627-44.9603L69.7627-51.5347C69.7627-57.5067 72.9554-61.3952 77.9245-61.3952C82.9439-61.3952 86.1366-57.5513 86.1366-51.5347L86.1366-44.9603Z"/>
  </g>
  <g id="Bold-L" transform="matrix(1 0 0 1 2264.05 1556)">
   <path d="M76.6652 30.589C77.9052 30.589 79.6888 30.0419 81.3097 29.1882C117.831 9.77726 130.616 0.253553 130.616-22.4065L130.616-69.2906C130.616-77.8494 127.718-81.1686 120.296-84.3115C113.466-87.1544 91.2621-94.7449 84.7112-96.9476C82.1888-97.7442 79.192-98.2632 76.6652-98.2632C74.1384-98.2632 71.1036-97.6391 68.619-96.9476C62.0815-95.025 39.8639-87.1163 33.0211-84.3115C25.6122-81.2199 22.7139-77.8494 22.7139-69.2906L22.7139-22.4065C22.7139 0.253553 35.5391 9.65989 72.0205 29.1882C73.6415 30.0419 75.4251 30.589 76.6652 30.589ZM76.6652 15.7803C75.8781 15.7803 75.0805 15.5049 73.381 14.492C44.9256-3.13771 36.1744-7.34738 36.1744-24.5989L36.1744-67.3548C36.1744-69.8914 36.7479-70.9508 38.6652-71.7469C47.3976-75.2405 65.4174-81.3049 72.3365-83.9339C74.2659-84.5846 75.5149-84.864 76.6652-84.864C77.8154-84.864 79.0379-84.5714 80.9806-83.9339C87.8616-81.3049 105.767-75.0125 114.627-71.7469C116.582-70.9888 117.118-69.8914 117.118-67.3548L117.118-24.5989C117.118-7.11377 107.639-2.24292 79.9113 14.492C78.2498 15.4757 77.4523 15.7803 76.6652 15.7803ZM54.2578-13.4687C54.2578-8.53655 56.4672-6.2643 61.0133-6.2643L92.3197-6.2643C96.8366-6.2643 99.046-8.53655 99.046-13.4687L99.046-37.5362C99.046-41.7952 97.339-44.0381 93.9233-44.4442L93.9233-51.3499C93.9233-62.8282 86.923-70.5197 76.6519-70.5197C66.3561-70.5197 59.4229-62.8282 59.4229-51.3499L59.4229-44.4734C55.9649-44.0381 54.2578-41.7952 54.2578-37.5362ZM67.4754-44.6573L67.4754-51.8466C67.4754-58.3803 71.1063-62.6689 76.6519-62.6689C82.24-62.6689 85.8709-58.4095 85.8709-51.8466L85.8709-44.6573Z"/>
  </g>
  <g id="Semibold-L" transform="matrix(1 0 0 1 1967.58 1556)">
   <path d="M75.7931 30.1772C76.9742 30.1772 78.6941 29.6518 80.2784 28.7978C116.408 9.09027 128.882 0.117027 128.882-22.3555L128.882-69.6551C128.882-77.5492 126.078-80.4323 119.311-83.2719C111.912-86.326 89.993-93.9946 82.7609-96.4668C80.552-97.1784 78.0332-97.6548 75.7931-97.6548C73.5531-97.6548 70.9908-97.0731 68.8252-96.4668C61.6117-94.2861 39.6745-86.2826 32.2568-83.2719C25.5083-80.4942 22.7045-77.5492 22.7045-69.6551L22.7045-22.3555C22.7045 0.117027 35.2339 8.936 71.3078 28.7978C72.8921 29.6518 74.6119 30.1772 75.7931 30.1772ZM75.7931 17.2367C74.9211 17.2367 74.0122 16.9032 72.3222 15.9005C43.6067-1.87657 34.3752-6.44753 34.3752-24.412L34.3752-67.8349C34.3752-70.4483 34.9376-71.5173 36.9274-72.3393C45.6845-75.8234 64.3841-82.2036 72.0081-85.1371C73.6285-85.7183 74.7971-85.9655 75.7931-85.9655C76.789-85.9655 77.9206-85.6998 79.5596-85.1371C87.1402-82.2036 105.71-75.5632 114.615-72.3393C116.649-71.5607 117.168-70.4483 117.168-67.8349L117.168-24.412C117.168-6.29895 107.453-1.33769 79.2206 15.9005C77.5739 16.8846 76.6651 17.2367 75.7931 17.2367ZM53.2267-12.8154C53.2267-7.91027 55.4039-5.66466 59.9071-5.66466L91.6607-5.66466C96.1452-5.66466 98.3225-7.91027 98.3225-12.8154L98.3225-37.3598C98.3225-41.7509 96.5416-43.9778 92.9302-44.2937L92.9302-51.5537C92.9302-62.9749 85.9825-70.6036 75.7746-70.6036C65.5418-70.6036 58.656-62.9749 58.656-51.5537L58.656-44.3123C55.0076-43.9778 53.2267-41.7509 53.2267-37.3598ZM65.8985-44.4484L65.8985-52.0617C65.8985-58.9825 69.8316-63.5469 75.7746-63.5469C81.7547-63.5469 85.6877-59.0011 85.6877-52.0617L85.6877-44.4484Z"/>
  </g>
  <g id="Medium-L" transform="matrix(1 0 0 1 1671.05 1556)">
   <path d="M75.1319 29.865C76.2683 29.865 77.9398 29.356 79.4963 28.5018C115.329 8.56936 127.566 0.0135072 127.566-22.3169L127.566-69.9315C127.566-77.3216 124.834-79.874 118.564-82.4836C110.733-85.6979 89.0308-93.4257 81.2821-96.1023C79.3109-96.7493 77.1545-97.1935 75.1319-97.1935C73.1093-97.1935 70.9054-96.644 68.9815-96.1023C61.2554-93.7259 39.5309-85.6504 31.6772-82.4836C25.4295-79.944 22.6974-77.3216 22.6974-69.9315L22.6974-22.3169C22.6974 0.0135072 35.0024 8.38712 70.7673 28.5018C72.3238 29.356 73.9954 29.865 75.1319 29.865ZM75.1319 18.3409C74.1955 18.3409 73.2022 17.9635 71.5193 16.9684C42.6067-0.920313 33.011-5.76522 33.011-24.2703L33.011-68.199C33.011-70.8705 33.5649-71.9468 35.6096-72.7884C44.3855-76.2655 63.6007-82.8851 71.7591-86.0493C73.1453-86.5779 74.2529-86.8008 75.1319-86.8008C76.0107-86.8008 77.0734-86.5555 78.4822-86.0493C86.5931-82.8851 105.666-75.9808 114.607-72.7884C116.699-71.9943 117.205-70.8705 117.205-68.199L117.205-24.2703C117.205-5.68112 107.312-0.651315 78.6969 16.9684C77.0615 17.953 76.0682 18.3409 75.1319 18.3409ZM52.4448-12.32C52.4448-7.43539 54.5977-5.20999 59.0684-5.20999L91.1609-5.20999C95.621-5.20999 97.7739-7.43539 97.7739-12.32L97.7739-37.2261C97.7739-41.7173 95.937-43.9321 92.1772-44.1796L92.1772-51.7082C92.1772-63.0861 85.2694-70.6672 75.1094-70.6672C64.9244-70.6672 58.0745-63.0861 58.0745-51.7082L58.0745-44.1901C54.2818-43.9321 52.4448-41.7173 52.4448-37.2261ZM64.7029-44.2901L64.7029-52.2247C64.7029-59.4391 68.865-64.2127 75.1094-64.2127C81.3867-64.2127 85.5488-59.4496 85.5488-52.2247L85.5488-44.2901Z"/>
  </g>
  <g id="Regular-L" transform="matrix(1 0 0 1 1374.57 1556)">
   <path d="M74.2694 29.4577C75.3475 29.4577 76.956 28.9701 78.4763 28.1157C113.921 7.88992 125.85-0.121519 125.85-22.2664L125.85-70.2919C125.85-77.0247 123.212-79.1458 117.59-81.4555C109.195-84.8787 87.7756-92.6837 79.3532-95.6268C77.6921-96.1897 76.0084-96.5918 74.2694-96.5918C72.5304-96.5918 70.7939-96.0843 69.1854-95.6268C60.7908-92.9951 39.3436-84.8258 30.9213-81.4555C25.3268-79.2263 22.6882-77.0247 22.6882-70.2919L22.6882-22.2664C22.6882-0.121519 34.7006 7.6712 70.0624 28.1157C71.5827 28.9701 73.1911 29.4577 74.2694 29.4577ZM74.2694 19.7813C73.249 19.7813 72.1456 19.3464 70.4722 18.3614C41.3022 0.326974 31.2315-4.87526 31.2315-24.0855L31.2315-68.6738C31.2315-71.4213 31.7745-72.5071 33.8909-73.3742C42.6912-76.8421 62.5787-83.7739 71.4343-87.2393C72.515-87.6992 73.543-87.8902 74.2694-87.8902C74.9956-87.8902 75.9684-87.6715 77.0768-87.2393C85.8796-83.7739 105.609-76.5255 114.595-73.3742C116.764-72.5598 117.254-71.4213 117.254-68.6738L117.254-24.0855C117.254-4.87526 107.128 0.243961 78.0138 18.3614C76.393 19.3464 75.2897 19.7813 74.2694 19.7813ZM51.425-11.6739C51.425-6.81599 53.5461-4.61694 57.9744-4.61694L90.5091-4.61694C94.9372-4.61694 97.0583-6.81599 97.0583-11.6739L97.0583-37.0517C97.0583-41.6735 95.1484-43.8724 91.195-44.0308L91.195-51.9098C91.195-63.2312 84.3393-70.7501 74.2417-70.7501C64.119-70.7501 57.316-63.2312 57.316-51.9098L57.316-44.0308C53.3351-43.8724 51.425-41.6735 51.425-37.0517ZM63.1433-44.0835L63.1433-52.4374C63.1433-60.0347 67.6043-65.0812 74.2417-65.0812C80.9068-65.0812 85.3677-60.0347 85.3677-52.4374L85.3677-44.0835Z"/>
  </g>
  <g id="Light-L" transform="matrix(1 0 0 1 1079.69 1556)">
   <path d="M72.7998 28.618C74.0115 28.618 75.62 28.0159 76.9685 27.2378C111.955 6.70664 123.293-0.617713 123.293-21.6175L123.293-69.3758C123.293-76.204 120.998-78.4014 114.937-80.8066C105.245-84.6496 87.413-91.3477 77.6737-94.7679C76.0317-95.3309 74.4625-95.733 72.7998-95.733C71.1372-95.733 69.5343-95.2636 67.9258-94.7679C58.2333-91.4301 40.3551-84.6158 30.6159-80.8066C24.6016-78.482 22.3065-76.204 22.3065-69.3758L22.3065-21.6175C22.3065-0.617713 33.7845 6.39248 68.631 27.2378C69.9795 28.0159 71.588 28.618 72.7998 28.618ZM72.7998 21.3653C71.7413 21.3653 70.5425 20.7969 69.2125 19.9645C39.9472 1.4721 28.865-3.76835 28.865-22.7495L28.865-68.1394C28.865-71.7839 29.5606-73.175 32.2495-74.2521C40.0193-77.3383 61.6435-85.2244 69.5067-88.2508C70.7782-88.8061 72.0162-89.0735 72.7998-89.0735C73.5833-89.0735 74.7279-88.7594 76.0462-88.2508C83.8756-85.2244 105.399-77.1362 113.316-74.2521C116.039-73.2088 116.701-71.7839 116.701-68.1394L116.701-22.7495C116.701-3.76835 105.525 1.3318 76.3534 19.9645C75.0571 20.7969 73.8583 21.3653 72.7998 21.3653ZM49.841-11.5403C49.841-6.54882 52.0384-4.33068 56.5811-4.33068L88.925-4.33068C93.4677-4.33068 95.6651-6.54882 95.6651-11.5403L95.6651-37.3379C95.6651-42.2078 93.6025-44.4259 89.3628-44.527L89.3628-52.9594C89.3628-63.8801 82.6598-71.0937 72.7531-71.0937C62.8594-71.0937 56.19-63.8801 56.19-52.9594L56.19-44.527C51.9036-44.4259 49.841-42.2078 49.841-37.3379ZM61.044-44.5606L61.044-53.2962C61.044-61.1417 65.753-66.3408 72.7531-66.3408C79.7998-66.3408 84.5088-61.1417 84.5088-53.2962L84.5088-44.5606Z"/>
  </g>
  <g id="Thin-L" transform="matrix(1 0 0 1 785.406 1556)">
   <path d="M70.8562 27.5074C72.2446 27.5074 73.8531 26.7538 74.9744 26.0767C109.355 5.14165 119.911-1.27397 119.911-20.7593L119.911-68.1642C119.911-75.1186 118.07-77.417 111.428-79.9484C100.019-84.3467 86.9334-89.5808 75.4524-93.6321C73.8357-94.195 72.4179-94.5971 70.8562-94.5971C69.2945-94.5971 67.8683-94.1782 66.2599-93.6321C54.8509-89.3603 41.693-84.3382 30.212-79.9484C23.6424-77.4975 21.8016-75.1186 21.8016-68.1642L21.8016-20.7593C21.8016-1.27397 32.5729 4.70128 66.7379 26.0767C67.8592 26.7538 69.4677 27.5074 70.8562 27.5074ZM70.8562 23.4604C69.7472 23.4604 68.4222 22.7153 67.5465 22.0848C38.155 2.98661 25.735-2.30436 25.735-20.9826L25.735-67.4326C25.735-72.2635 26.6326-74.0585 30.0787-75.4132C36.4854-77.9945 60.4067-87.1428 66.9573-89.5886C68.4812-90.2701 69.9968-90.6385 70.8562-90.6385C71.7155-90.6385 73.0872-90.1981 74.6831-89.5886C81.2253-87.1428 105.121-77.9439 111.625-75.4132C115.08-74.067 115.969-72.2635 115.969-67.4326L115.969-20.9826C115.969-2.30436 103.405 2.77055 74.1574 22.0848C73.2901 22.7153 71.9652 23.4604 70.8562 23.4604ZM47.7459-11.3637C47.7459-6.19545 50.0443-3.95208 54.7385-3.95208L86.8299-3.95208C91.5241-3.95208 93.8225-6.19545 93.8225-11.3637L93.8225-37.7165C93.8225-42.9146 91.5579-45.1579 86.9396-45.1833L86.9396-54.3477C86.9396-64.7383 80.4385-71.548 70.7843-71.548C61.1934-71.548 54.7007-64.7383 54.7007-54.3477L54.7007-45.1833C50.0105-45.1579 47.7459-42.9146 47.7459-37.7165ZM58.2674-45.1917L58.2674-54.4321C58.2674-62.6057 63.3045-68.0067 70.7843-68.0067C78.3358-68.0067 83.3729-62.6057 83.3729-54.4321L83.3729-45.1917Z"/>
  </g>
  <g id="Ultralight-L" transform="matrix(1 0 0 1 489.936 1556)">
   <path d="M69.8607 26.9385C71.3396 26.9385 72.9481 26.1073 73.953 25.4819C108.024 4.34008 118.178-1.6101 118.178-20.3198L118.178-67.5436C118.178-74.5627 116.57-76.9128 109.631-79.5088C97.3432-84.1916 86.6877-88.6758 74.3147-93.0503C72.7109-93.6132 71.3707-94.0152 69.8607-94.0152C68.3507-94.0152 67.0151-93.6223 65.4066-93.0503C53.1184-88.3002 42.3782-84.196 30.0051-79.5088C23.1512-76.9933 21.5431-74.5627 21.5431-67.5436L21.5431-20.3198C21.5431-1.6101 31.9523 3.83505 65.7683 25.4819C66.7732 26.1073 68.3817 26.9385 69.8607 26.9385ZM69.8607 24.5335C68.7258 24.5335 67.3362 23.6979 66.6932 23.1709C37.2371 3.76234 24.1318-1.55451 24.1318-20.0776L24.1318-67.0706C24.1318-72.5091 25.1328-74.511 28.9668-76.0079C34.6754-78.3307 59.7732-88.1254 65.6515-90.2738C67.3047-91.0199 68.9625-91.4401 69.8607-91.4401C70.7587-91.4401 72.2468-90.935 73.9849-90.2738C79.8678-88.1254 104.979-78.3576 110.759-76.0079C114.588-74.5066 115.594-72.5091 115.594-67.0706L115.594-20.0776C115.594-1.55451 102.319 3.50747 73.0326 23.1709C72.3851 23.6979 70.9955 24.5335 69.8607 24.5335ZM46.6728-11.2732C46.6728-6.01446 49.0229-3.75816 53.7947-3.75816L85.7568-3.75816C90.5286-3.75816 92.8787-6.01446 92.8787-11.2732L92.8787-37.9105C92.8787-43.2765 90.5107-45.5329 85.6985-45.5195L85.6985-55.0588C85.6985-65.1778 79.3008-71.7808 69.7758-71.7808C60.3401-71.7808 53.9379-65.1778 53.9379-55.0588L53.9379-45.5195C49.0408-45.5329 46.6728-43.2765 46.6728-37.9105ZM56.8453-45.515L56.8453-55.0139C56.8453-63.3556 62.0504-68.86 69.7758-68.86C77.5859-68.86 82.7911-63.3556 82.7911-55.0139L82.7911-45.515Z"/>
  </g>
  <g id="Black-M" transform="matrix(1 0 0 1 2874.43 1126)">
   <path d="M61.7235 16.8123C62.9207 16.8123 64.5093 16.2793 65.8255 15.6447C95.2346 1.46419 105.949-7.46544 105.949-25.2395L105.949-60.1244C105.949-68.9432 103.514-72.9548 95.4897-76.4057C91.6042-78.0662 74.6966-83.3168 71.3822-84.312C68.4177-85.2049 64.585-85.7448 61.7235-85.7448C58.8619-85.7448 55.0237-85.1368 52.0647-84.312C48.7501-83.4189 31.8428-78.0607 27.9576-76.4057C19.9329-72.96 17.4979-68.9432 17.4979-60.1244L17.4979-25.2395C17.4979-7.46544 28.2115 1.4604 57.6215 15.6447C58.9376 16.2793 60.5263 16.8123 61.7235 16.8123ZM61.7235 0.106482C61.3761 0.106482 61.0866 0.0357518 59.8561-0.729797C38.6216-14.0666 33.0549-16.1694 33.0549-27.1448L33.0549-58.3794C33.0549-60.4012 33.5872-61.2947 35.0324-61.899C41.3669-64.506 53.7141-68.5054 56.451-69.4056C59.0125-70.1673 60.3124-70.514 61.7235-70.514C63.1346-70.514 64.435-70.1676 66.9963-69.4056C69.7276-68.5054 82.0583-64.4731 88.409-61.899C89.8597-61.3002 90.3867-60.4012 90.3867-58.3794L90.3867-27.1448C90.3867-15.7126 83.4501-12.2386 63.5854-0.729797C62.3604-0.0213468 62.0709 0.106482 61.7235 0.106482ZM44.8405-20.4436C44.8405-16.4893 46.6824-14.636 50.3825-14.636L73.1221-14.636C76.7651-14.636 78.6072-16.4893 78.6072-20.4436L78.6072-37.6859C78.6072-40.6418 77.4722-42.4379 75.3632-43.0254L75.3632-47.4151C75.3632-56.3566 69.821-62.4152 61.7238-62.4152C53.6208-62.4152 48.1411-56.3566 48.1411-47.4151L48.1411-43.0824C45.9753-42.4379 44.8405-40.6418 44.8405-37.6859ZM56.675-43.3734L56.675-47.6984C56.675-51.5893 58.5927-54.0692 61.7238-54.0692C64.9116-54.0692 66.8295-51.6463 66.8295-47.6984L66.8295-43.3734Z"/>
  </g>
  <g id="Heavy-M" transform="matrix(1 0 0 1 2577.63 1126)">
   <path d="M60.9338 16.4707C62.0276 16.4707 63.5354 15.9897 64.842 15.3384C93.8528 0.84753 104.299-7.53192 104.299-25.3142L104.299-60.7832C104.299-68.7389 101.91-72.1813 94.8109-75.2273C90.4821-77.0653 73.1658-82.6528 69.2708-83.887C66.6996-84.6721 63.4482-85.1582 60.9338-85.1582C58.4193-85.1582 55.1514-84.5957 52.5967-83.887C48.704-82.8185 31.3854-77.0489 27.0543-75.2273C19.957-72.2 17.568-68.7389 17.568-60.7832L17.568-25.3142C17.568-7.53192 28.0214 0.817476 57.0254 15.3384C58.3321 15.9897 59.8399 16.4707 60.9338 16.4707ZM60.9338 1.61228C60.4869 1.61228 60.0768 1.4967 58.7845 0.71118C37.2408-12.7139 31.2825-15.2665 31.2825-27.1949L31.2825-59.1028C31.2825-61.0291 31.768-61.8693 33.1821-62.4613C39.7693-65.1384 52.6052-69.333 56.4488-70.7134C58.5777-71.3666 59.7305-71.6561 60.9338-71.6561C62.1369-71.6561 63.2852-71.3643 65.4164-70.7134C69.2436-69.333 82.0302-65.04 88.6689-62.4613C90.0994-61.8857 90.5686-61.0291 90.5686-59.1028L90.5686-27.1949C90.5686-14.9175 83.5588-11.3248 63.0665 0.71118C61.7906 1.45307 61.3806 1.61228 60.9338 1.61228ZM43.8737-19.6442C43.8737-15.7528 45.6584-13.9374 49.2796-13.9374L72.6269-13.9374C76.2044-13.9374 77.9893-15.7528 77.9893-19.6442L77.9893-37.4009C77.9893-40.4709 76.7935-42.2426 74.4979-42.728L74.4979-47.4479C74.4979-56.4032 68.9896-62.4477 60.9315-62.4477C52.8591-62.4477 47.4109-56.4032 47.4109-47.4479L47.4109-42.7716C45.0694-42.2426 43.8737-40.4709 43.8737-37.4009ZM55.1271-43.0061L55.1271-47.7865C55.1271-52.1149 57.3745-54.9117 60.9315-54.9117C64.5343-54.9117 66.7818-52.1584 66.7818-47.7865L66.7818-43.0061Z"/>
  </g>
  <g id="Bold-M" transform="matrix(1 0 0 1 2280.81 1126)">
   <path d="M60.0503 16.0886C61.0284 16.0886 62.4458 15.6659 63.7418 14.9958C92.3071 0.157703 102.454-7.60628 102.454-25.3978L102.454-61.5201C102.454-68.5104 100.117-71.3161 94.0516-73.9091C89.2268-75.9457 71.4533-81.9099 66.9088-83.4116C64.7776-84.0761 62.1765-84.5019 60.0503-84.5019C57.9241-84.5019 55.2942-83.9904 53.1917-83.4116C48.6523-82.1469 30.8737-75.9171 26.0438-73.9091C19.9839-71.3499 17.6464-68.5104 17.6464-61.5201L17.6464-25.3978C17.6464-7.60628 27.8088 0.0982732 56.3587 14.9958C57.6546 15.6659 59.072 16.0886 60.0503 16.0886ZM60.0503 3.29672C59.4922 3.29672 58.9472 3.13097 57.5858 2.32312C35.6962-11.2008 29.2999-14.2565 29.2999-27.2509L29.2999-59.9121C29.2999-61.7316 29.7329-62.512 31.1122-63.0903C37.9821-65.8459 51.3647-70.2588 56.4463-72.1764C58.0913-72.7082 59.0797-72.9338 60.0503-72.9338C61.0208-72.9338 61.9989-72.7031 63.6491-72.1764C68.702-70.2588 81.9987-65.6741 88.9596-63.0903C90.3676-62.5406 90.772-61.7316 90.772-59.9121L90.772-27.2509C90.772-14.0281 83.6803-10.3026 62.4861 2.32312C61.1533 3.10242 60.6084 3.29672 60.0503 3.29672ZM42.7921-18.7499C42.7921-14.929 44.513-13.1559 48.0458-13.1559L72.073-13.1559C75.5772-13.1559 77.2981-14.929 77.2981-18.7499L77.2981-37.082C77.2981-40.2796 76.0343-42.024 73.5299-42.3954L73.5299-47.4847C73.5299-56.4552 68.0596-62.4841 60.0451-62.4841C52.0071-62.4841 46.594-56.4552 46.594-47.4847L46.594-42.4239C44.056-42.024 42.7921-40.2796 42.7921-37.082ZM53.3955-42.5953L53.3955-47.8851C53.3955-52.7028 56.0118-55.8541 60.0451-55.8541C64.1122-55.8541 66.7284-52.7313 66.7284-47.8851L66.7284-42.5953Z"/>
  </g>
  <g id="Semibold-M" transform="matrix(1 0 0 1 1984.03 1126)">
   <path d="M59.4412 15.8252C60.3397 15.8252 61.6947 15.4426 62.9833 14.7597C91.2415-0.317859 101.182-7.65754 101.182-25.4555L101.182-62.0282C101.182-68.3529 98.8799-70.7196 93.5281-73.0003C88.3614-75.1739 70.2728-81.3978 65.2805-83.0838C63.4526-83.6652 61.2997-84.0494 59.4412-84.0494C57.5827-84.0494 55.3927-83.573 53.6019-83.0838C48.6167-81.6838 30.521-75.1368 25.3472-73.0003C20.0025-70.7638 17.7005-68.3529 17.7005-62.0282L17.7005-25.4555C17.7005-7.65754 27.6622-0.397541 55.8991 14.7597C57.1876 15.4426 58.5427 15.8252 59.4412 15.8252ZM59.4412 4.45797C58.8064 4.45797 58.1685 4.25763 56.7594 3.43438C34.6313-10.1576 27.9331-13.5602 27.9331-27.2896L27.9331-60.47C27.9331-62.2159 28.3299-62.9551 29.6853-63.5239C36.75-66.3336 50.5095-70.8971 56.4446-73.185C57.756-73.6331 58.6309-73.8146 59.4412-73.8146C60.2514-73.8146 61.1122-73.626 62.4307-73.185C68.3287-70.8971 81.9771-66.1113 89.1601-63.5239C90.5524-62.9922 90.9123-62.2159 90.9123-60.47L90.9123-27.2896C90.9123-13.4149 83.7641-9.59792 62.0859 3.43438C60.7139 4.23948 60.076 4.45797 59.4412 4.45797ZM42.0465-18.1333C42.0465-14.361 43.7233-12.6171 47.1952-12.6171L71.6911-12.6171C75.1448-12.6171 76.8216-14.361 76.8216-18.1333L76.8216-36.8622C76.8216-40.1478 75.5109-41.8734 72.8626-42.1661L72.8626-47.51C72.8626-56.4911 67.4185-62.5092 59.4341-62.5092C51.4198-62.5092 46.0308-56.4911 46.0308-47.51L46.0308-42.1842C43.3573-41.8734 42.0465-40.1478 42.0465-36.8622ZM52.2018-42.312L52.2018-47.9531C52.2018-53.1081 55.0723-56.5038 59.4341-56.5038C63.8212-56.5038 66.6916-53.1263 66.6916-47.9531L66.6916-42.312Z"/>
  </g>
  <g id="Medium-M" transform="matrix(1 0 0 1 1687.27 1126)">
   <path d="M58.9794 15.6255C59.8174 15.6255 61.1252 15.2733 62.4082 14.5806C90.4335-0.67845 100.217-7.69641 100.217-25.4992L100.217-62.4134C100.217-68.2334 97.9422-70.2674 93.1312-72.3113C87.7052-74.5886 69.3777-81.0095 64.0458-82.8353C62.448-83.3537 60.635-83.7064 58.9794-83.7064C57.3239-83.7064 55.4674-83.2566 53.9129-82.8353C48.5898-81.3327 30.2535-74.5451 24.819-72.3113C20.0166-70.3195 17.7415-68.2334 17.7415-62.4134L17.7415-25.4992C17.7415-7.69641 27.551-0.773488 55.5505 14.5806C56.8335 15.2733 58.1413 15.6255 58.9794 15.6255ZM58.9794 5.33848C58.2865 5.33848 57.578 5.11192 56.1328 4.27699C33.8239-9.36665 26.8967-13.0322 26.8967-27.3189L26.8967-60.893C26.8967-62.5832 27.2661-63.2911 28.6033-63.8527C35.8158-66.7034 49.8611-71.3811 56.4433-73.9497C57.5017-74.3344 58.2907-74.4825 58.9794-74.4825C59.668-74.4825 60.4398-74.3258 61.5069-73.9497C68.0457-71.3811 81.9606-66.4428 89.312-63.8527C90.6926-63.3345 91.0186-62.5832 91.0186-60.893L91.0186-27.3189C91.0186-12.95 83.8276-9.06359 61.7825 4.27699C60.3807 5.10164 59.6723 5.33848 58.9794 5.33848ZM41.4812-17.6659C41.4812-13.9303 43.1246-12.2086 46.5503-12.2086L71.4016-12.2086C74.8169-12.2086 76.4603-13.9303 76.4603-17.6659L76.4603-36.6955C76.4603-40.0478 75.114-41.7591 72.3566-41.9922L72.3566-47.5292C72.3566-56.5183 66.9323-62.5282 58.9708-62.5282C50.9744-62.5282 45.6038-56.5183 45.6038-47.5292L45.6038-42.0025C42.8276-41.7591 41.4812-40.0478 41.4812-36.6955ZM51.2967-42.0973L51.2967-48.0046C51.2967-53.4155 54.36-56.9965 58.9708-56.9965C63.6005-56.9965 66.6637-53.4257 66.6637-48.0046L66.6637-42.0973Z"/>
  </g>
  <g id="Regular-M" transform="matrix(1 0 0 1 1390.48 1126)">
   <path d="M58.377 15.365C59.1362 15.365 60.3823 15.0524 61.6581 14.347C89.3796-1.14879 98.959-7.74712 98.959-25.5562L98.959-62.9159C98.959-68.0776 96.719-69.6774 92.6135-71.4125C86.8494-73.8253 68.2101-80.503 62.4354-82.5112C61.1375-82.9473 59.7679-83.2589 58.377-83.2589C56.9863-83.2589 55.5648-82.8439 54.3186-82.5112C48.5546-80.8748 29.9047-73.7734 24.13-71.4125C20.035-69.7398 17.795-68.0776 17.795-62.9159L17.795-25.5562C17.795-7.74712 27.406-1.26385 55.0959 14.347C56.3717 15.0524 57.6178 15.365 58.377 15.365ZM58.377 6.48696C57.6083 6.48696 56.8078 6.2262 55.3156 5.37604C32.7708-8.33495 25.545-12.3436 25.545-27.3571L25.545-61.4448C25.545-63.0621 25.8786-63.7293 27.192-64.2815C34.5973-67.1857 49.0153-72.0123 56.4416-74.9472C57.1701-75.2492 57.8469-75.3537 58.377-75.3537C58.9071-75.3537 59.5628-75.2386 60.3019-74.9472C67.6765-72.0123 81.9392-66.8752 89.5102-64.2815C90.8754-63.7811 91.1573-63.0621 91.1573-61.4448L91.1573-27.3571C91.1573-12.3436 83.9104-8.36662 61.3867 5.37604C59.9462 6.2262 59.1458 6.48696 58.377 6.48696ZM40.7438-17.0561C40.7438-13.3686 42.3436-11.6758 45.7091-11.6758L71.0239-11.6758C74.3893-11.6758 75.9891-13.3686 75.9891-17.0561L75.9891-36.4781C75.9891-39.9174 74.5964-41.6101 71.6967-41.7654L71.6967-47.5542C71.6967-56.5538 66.2982-62.5531 58.3665-62.5531C50.3935-62.5531 45.0468-56.5538 45.0468-47.5542L45.0468-41.7654C42.1366-41.6101 40.7438-39.9174 40.7438-36.4781ZM50.1161-41.8171L50.1161-48.0718C50.1161-53.8164 53.4309-57.639 58.3665-57.639C63.3127-57.639 66.6273-53.8164 66.6273-48.0718L66.6273-41.8171Z"/>
  </g>
  <g id="Light-M" transform="matrix(1 0 0 1 1095.42 1126)">
   <path d="M57.0595 14.6121C57.9384 14.6121 59.1846 14.1969 60.3063 13.5599C87.6172-2.20966 96.6661-8.19198 96.6661-24.9745L96.6661-62.0945C96.6661-67.3419 94.7342-69.0101 90.2351-70.8307C83.3074-73.62 67.885-79.3052 60.9296-81.7412C59.6489-82.1773 58.3819-82.4889 57.0595-82.4889C55.7372-82.4889 54.4355-82.1081 53.1893-81.7412C46.2617-79.4717 30.8116-73.5852 23.8563-70.8307C19.3848-69.0725 17.4528-67.3419 17.4528-62.0945L17.4528-24.9745C17.4528-8.19198 26.5847-2.41029 53.8126 13.5599C54.9344 14.1969 56.1805 14.6121 57.0595 14.6121ZM57.0595 7.90717C56.2565 7.90717 55.3705 7.52663 54.1862 6.81335C31.5559-7.30829 23.4232-11.3512 23.4232-26.1593L23.4232-60.9656C23.4232-63.3873 23.8937-64.3282 25.7205-65.0686C32.2017-67.6306 48.1768-73.3127 54.7134-75.8541C55.613-76.2416 56.4781-76.4145 57.0595-76.4145C57.6409-76.4145 58.4506-76.2139 59.3779-75.8541C65.8798-73.3127 81.7509-67.4227 88.3638-65.0686C90.2252-64.3629 90.6611-63.3873 90.6611-60.9656L90.6611-26.1593C90.6611-11.3512 82.4731-7.39132 59.8981 6.81335C58.7484 7.52663 57.8625 7.90717 57.0595 7.90717ZM39.3236-16.9364C39.3236-13.1291 40.9918-11.4191 44.46-11.4191L69.6037-11.4191C73.0718-11.4191 74.74-13.1291 74.74-16.9364L74.74-36.7347C74.74-40.3965 73.2104-42.1064 70.054-42.2103L70.054-48.4953C70.054-57.1356 64.7925-62.8611 57.0318-62.8611C49.2642-62.8611 44.0372-57.1356 44.0372-48.4953L44.0372-42.2103C40.8533-42.1064 39.3236-40.3965 39.3236-36.7347ZM48.2339-42.2449L48.2339-48.8418C48.2339-54.8088 51.7711-58.7683 57.0318-58.7683C62.3203-58.7683 65.8573-54.8088 65.8573-48.8418L65.8573-42.2449Z"/>
  </g>
  <g id="Thin-M" transform="matrix(1 0 0 1 800.877 1126)">
   <path d="M55.317 13.6163C56.3543 13.6163 57.6004 13.0653 58.5184 12.5189C85.2862-3.61275 93.6336-8.78035 93.6336-24.205L93.6336-61.0083C93.6336-66.3688 92.1091-68.1275 87.0894-70.0613C78.6229-73.3484 67.455-77.7211 58.9381-80.7229C57.6801-81.159 56.5488-81.4705 55.317-81.4705C54.0851-81.4705 52.9419-81.135 51.6957-80.7229C43.2291-77.616 32.011-73.3363 23.4941-70.0613C18.5249-68.1899 17.0002-66.3688 17.0002-61.0083L17.0002-24.205C17.0002-8.78035 25.4984-3.92654 52.1154 12.5189C53.0334 13.0653 54.2795 13.6163 55.317 13.6163ZM55.317 9.78551C54.4687 9.78551 53.4695 9.24655 52.6926 8.71432C29.9491-5.95045 20.617-10.0386 20.617-24.5751L20.617-60.332C20.617-63.8172 21.2686-65.1203 23.7742-66.1096C29.0334-68.219 47.0679-75.0327 52.4277-77.0535C53.5536-77.5541 54.6676-77.8176 55.317-77.8176C55.9662-77.8176 56.9797-77.5038 58.1558-77.0535C63.5036-75.0327 81.502-68.1469 86.8476-66.1096C89.3652-65.1324 90.0048-63.8172 90.0048-60.332L90.0048-24.5751C90.0048-10.0386 80.5722-6.10141 57.9293 8.71432C57.1643 9.24655 56.1652 9.78551 55.317 9.78551ZM37.4453-16.778C37.4453-12.8123 39.204-11.0797 42.808-11.0797L67.7253-11.0797C71.3292-11.0797 73.088-12.8123 73.088-16.778L73.088-37.0742C73.088-41.0301 71.3773-42.7627 67.8815-42.7987L67.8815-49.74C67.8815-57.905 62.801-63.2684 55.2667-63.2684C47.7705-63.2684 42.702-57.905 42.702-49.74L42.702-42.7987C39.1559-42.7627 37.4453-41.0301 37.4453-37.0742ZM45.7446-42.8107L45.7446-49.8601C45.7446-56.1214 49.5759-60.2619 55.2667-60.2619C61.0077-60.2619 64.8389-56.1214 64.8389-49.8601L64.8389-42.8107Z"/>
  </g>
  <g id="Ultralight-M" transform="matrix(1 0 0 1 505.279 1126)">
   <path d="M54.4244 13.1063C55.5429 13.1063 56.789 12.4858 57.6027 11.9857C84.0923-4.3314 92.0804-9.08171 92.0804-23.811L92.0804-60.4519C92.0804-65.8703 90.7645-67.6754 85.4782-69.6672C76.2235-73.2093 67.2348-76.9097 57.918-80.2013C56.6716-80.6374 55.6099-80.9489 54.4244-80.9489C53.239-80.9489 52.1769-80.6366 50.9307-80.2013C41.6759-76.6655 32.6254-73.2088 23.3087-69.6672C18.0844-67.7378 16.7683-65.8703 16.7683-60.4519L16.7683-23.811C16.7683-9.08171 24.942-4.70316 51.246 11.9857C52.0597 12.4858 53.3059 13.1063 54.4244 13.1063ZM54.4244 10.7476C53.553 10.7476 52.4959 10.1275 51.9275 9.68799C29.1261-5.25497 19.1797-9.36635 19.1797-23.7638L19.1797-60.0074C19.1797-64.0375 19.924-65.5259 22.7773-66.6428C27.4107-68.5203 46.4999-75.9137 51.257-77.6678C52.4988-78.2264 53.7403-78.5363 54.4244-78.5363C55.1085-78.5363 56.2262-78.1645 57.5299-77.6678C62.2865-75.9137 81.3745-68.5178 86.071-66.6428C88.9247-65.5265 89.6686-64.0375 89.6686-60.0074L89.6686-23.7638C89.6686-9.36635 79.5985-5.44072 56.9208 9.68799C56.3529 10.1275 55.2958 10.7476 54.4244 10.7476ZM36.4832-16.6969C36.4832-12.65 38.2883-10.9058 41.9618-10.9058L66.7632-10.9058C70.4367-10.9058 72.2418-12.65 72.2418-16.6969L72.2418-37.248C72.2418-41.3547 70.4384-43.0988 66.7687-43.1001L66.7687-50.3775C66.7687-58.2991 61.781-63.4771 54.3626-63.4771C47.0055-63.4771 42.0181-58.2991 42.0181-50.3775L42.0181-43.1001C38.2866-43.0988 36.4832-41.3547 36.4832-37.248ZM44.4696-43.1005L44.4696-50.3817C44.4696-56.7937 48.4515-61.027 54.3626-61.027C60.3354-61.027 64.3173-56.7937 64.3173-50.3817L64.3173-43.1005Z"/>
  </g>
  <g id="Black-S" transform="matrix(1 0 0 1 2887.31 696)">
   <path d="M48.5352 5.61523C49.5117 5.61523 50.7812 5.17578 51.8066 4.6875C74.9512-6.34766 83.3984-13.4766 83.3984-27.3438L83.3984-54.4922C83.3984-61.6699 81.4941-64.9902 74.9023-67.8223C71.9238-69.0918 58.9844-73.0469 56.4941-73.7793C54.0527-74.5117 50.8789-74.9512 48.5352-74.9512C46.1914-74.9512 43.0176-74.4629 40.5762-73.7793C38.0859-73.0957 25.1465-69.0918 22.168-67.8223C15.5762-64.9902 13.6719-61.6699 13.6719-54.4922L13.6719-27.3438C13.6719-13.4766 22.1191-6.34766 45.2637 4.6875C46.2891 5.17578 47.5586 5.61523 48.5352 5.61523ZM48.5352-7.91016C48.291-7.91016 48.0957-7.95898 47.168-8.54492C30.6152-18.9941 26.3184-20.5078 26.3184-28.8086L26.3184-53.125C26.3184-54.7852 26.7578-55.5176 27.9297-56.0059C32.7637-58.0078 42.3828-61.1328 44.1406-61.6699C46.2891-62.3047 47.3633-62.5977 48.5352-62.5977C49.707-62.5977 50.7812-62.3047 52.9297-61.6699C54.6875-61.1328 64.3066-58.0078 69.1406-56.0059C70.3125-55.5176 70.752-54.7852 70.752-53.125L70.752-28.8086C70.752-20.1172 65.2832-17.4316 49.9023-8.54492C48.9746-8.00781 48.7793-7.91016 48.5352-7.91016ZM35.3516-23.877C35.3516-20.752 36.8164-19.2871 39.7461-19.2871L57.373-19.2871C60.2539-19.2871 61.7188-20.752 61.7188-23.877L61.7188-37.2559C61.7188-39.5508 60.8398-40.9668 59.2285-41.4551L59.2285-44.8242C59.2285-51.8066 54.8828-56.543 48.5352-56.543C42.1875-56.543 37.8906-51.8066 37.8906-44.8242L37.8906-41.5039C36.2305-40.9668 35.3516-39.5508 35.3516-37.2559ZM44.7754-41.748L44.7754-45.0195C44.7754-47.9492 46.1914-49.8047 48.5352-49.8047C50.9277-49.8047 52.3438-47.998 52.3438-45.0195L52.3438-41.748Z"/>
  </g>
  <g id="Heavy-S" transform="matrix(1 0 0 1 2590.31 696)">
   <path d="M48.0281 5.41932C48.9009 5.41932 50.1013 5.03749 51.1382 4.52616C73.9947-6.73949 82.2805-13.4766 82.2805-27.4821L82.2805-55.1606C82.2805-61.5892 80.3762-64.414 74.6257-66.8888C71.4167-68.262 57.7167-72.632 54.8807-73.5142C52.7735-74.1544 50.0837-74.5478 48.0281-74.5478C45.9724-74.5478 43.2711-74.0941 41.1755-73.5142C38.3395-72.7615 24.6394-68.2505 21.4304-66.8888C15.6799-64.4255 13.7756-61.5892 13.7756-55.1606L13.7756-27.4821C13.7756-13.4766 22.0615-6.75102 44.918 4.52616C45.9549 5.03749 47.1552 5.41932 48.0281 5.41932ZM48.0281-6.80381C47.7033-6.80381 47.4157-6.87568 46.3959-7.49619C29.5895-17.9684 25.0737-19.8624 25.0737-29.0045L25.0737-53.805C25.0737-55.2807 25.4555-55.9325 26.5352-56.3862C31.7034-58.4918 41.5415-61.6744 44.3596-62.6725C46.1162-63.2036 47.0406-63.439 48.0281-63.439C49.0155-63.439 49.9399-63.2036 51.6966-62.6725C54.5031-61.6744 64.3066-58.4227 69.5094-56.3862C70.6006-55.944 70.971-55.2807 70.971-53.805L70.971-29.0045C70.971-19.564 65.5598-16.7747 49.6488-7.49619C48.6404-6.91299 48.3529-6.80381 48.0281-6.80381ZM34.7062-23.2086C34.7062-20.1527 36.1134-18.7224 38.9624-18.7224L57.131-18.7224C59.9427-18.7224 61.35-20.1527 61.35-23.2086L61.35-36.9793C61.35-39.3434 60.4365-40.7363 58.6984-41.1439L58.6984-44.732C58.6984-51.772 54.3642-56.5315 48.0281-56.5315C41.6804-56.5315 37.3951-51.772 37.3951-44.732L37.3951-41.1812C35.6197-40.7363 34.7062-39.3434 34.7062-36.9793ZM43.6921-41.3792L43.6921-44.9965C43.6921-48.2719 45.3616-50.3809 48.0281-50.3809C50.7318-50.3809 52.4014-48.3092 52.4014-44.9965L52.4014-41.3792Z"/>
  </g>
  <g id="Bold-S" transform="matrix(1 0 0 1 2293.28 696)">
   <path d="M47.4609 5.2002C48.2178 5.2002 49.3408 4.88281 50.3906 4.34571C72.9248-7.17773 81.0303-13.4766 81.0303-27.6368L81.0303-55.9082C81.0303-61.499 79.1259-63.7695 74.3164-65.8448C70.8496-67.334 56.2988-72.168 53.0761-73.2178C51.3428-73.7549 49.1944-74.0967 47.4609-74.0967C45.7276-74.0967 43.5547-73.6816 41.8457-73.2178C38.6231-72.3877 24.0722-67.3096 20.6055-65.8448C15.7959-63.7939 13.8916-61.499 13.8916-55.9082L13.8916-27.6368C13.8916-13.4766 21.997-7.20215 44.5312 4.34571C45.5811 4.88281 46.7041 5.2002 47.4609 5.2002ZM47.4609-5.56641C47.0459-5.56641 46.6552-5.66406 45.5323-6.32324C28.4424-16.8213 23.6817-19.1406 23.6817-29.2236L23.6817-54.5654C23.6817-55.835 23.999-56.3965 24.9756-56.8116C30.5176-59.0332 40.6006-62.2802 44.6045-63.7939C45.9229-64.209 46.6797-64.3799 47.4609-64.3799C48.2421-64.3799 48.999-64.209 50.3174-63.7939C54.2968-62.2802 64.3066-58.8867 69.9219-56.8116C70.9229-56.4209 71.2158-55.835 71.2158-54.5654L71.2158-29.2236C71.2158-18.9453 65.8691-16.04 49.3652-6.32324C48.2666-5.68847 47.876-5.56641 47.4609-5.56641ZM33.9844-22.4609C33.9844-19.4824 35.3272-18.0908 38.0859-18.0908L56.8604-18.0908C59.5947-18.0908 60.9375-19.4824 60.9375-22.4609L60.9375-36.67C60.9375-39.1114 59.9854-40.4785 58.1055-40.7959L58.1055-44.6289C58.1055-51.7334 53.7841-56.5186 47.4609-56.5186C41.1133-56.5186 36.8408-51.7334 36.8408-44.6289L36.8408-40.8203C34.9366-40.4785 33.9844-39.1114 33.9844-36.67ZM42.4805-40.9668L42.4805-44.9707C42.4805-48.6328 44.4336-51.0254 47.4609-51.0254C50.5127-51.0254 52.4659-48.6572 52.4659-44.9707L52.4659-40.9668Z"/>
  </g>
  <g id="Semibold-S" transform="matrix(1 0 0 1 1996.34 696)">
   <path d="M47.0699 5.04912C47.7468 5.04912 48.8165 4.77617 49.8752 4.22129C72.1872-7.47988 80.1682-13.4766 80.1682-27.7434L80.1682-56.4236C80.1682-61.4368 78.2639-63.3252 74.1031-65.1249C70.4586-66.6942 55.3213-71.8481 51.832-73.0133C50.3563-73.4794 48.5812-73.7857 47.0699-73.7857C45.5587-73.7857 43.7502-73.3973 42.3078-73.0133C38.8186-72.13 23.6812-66.6608 20.0367-65.1249C15.8759-63.3585 13.9716-61.4368 13.9716-56.4236L13.9716-27.7434C13.9716-13.4766 21.9526-7.51318 44.2646 4.22129C45.3233 4.77617 46.3931 5.04912 47.0699 5.04912ZM47.0699-4.71329C46.5927-4.71329 46.1309-4.82871 44.9368-5.51455C27.6514-16.0303 22.7219-18.6429 22.7219-29.3747L22.7219-55.0898C22.7219-56.2171 22.9948-56.7164 23.9003-57.1048C29.7-59.4064 39.9519-62.6979 44.7734-64.5671C45.7895-64.9022 46.4309-65.0286 47.0699-65.0286C47.7089-65.0286 48.3503-64.9022 49.3665-64.5671C54.1547-62.6979 64.3066-59.2066 70.2062-57.1048C71.145-56.7497 71.3847-56.2171 71.3847-55.0898L71.3847-29.3747C71.3847-18.5187 66.0824-15.5335 49.1697-5.51455C48.0089-4.84424 47.5472-4.71329 47.0699-4.71329ZM33.4867-21.9455C33.4867-19.0203 34.7851-17.6553 37.4817-17.6553L56.6737-17.6553C59.3548-17.6553 60.6531-19.0203 60.6531-21.9455L60.6531-36.4567C60.6531-38.9514 59.6743-40.3008 57.6967-40.556L57.6967-44.5578C57.6967-51.7068 53.3842-56.5097 47.0699-56.5097C40.7223-56.5097 36.4587-51.7068 36.4587-44.5578L36.4587-40.5715C34.4656-40.3008 33.4867-38.9514 33.4867-36.4567ZM41.6451-40.6824L41.6451-44.9529C41.6451-48.8816 43.7938-51.4697 47.0699-51.4697C50.3616-51.4697 52.5103-48.8971 52.5103-44.9529L52.5103-40.6824Z"/>
  </g>
  <g id="Medium-S" transform="matrix(1 0 0 1 1699.46 696)">
   <path d="M46.7734 4.93457C47.3896 4.93457 48.4189 4.69531 49.4844 4.12696C71.6279-7.70898 79.5146-13.4766 79.5146-27.8242L79.5146-56.8144C79.5146-61.3896 77.6103-62.9883 73.9414-64.5791C70.1621-66.209 54.5801-71.6055 50.8887-72.8584C49.6084-73.2705 48.1162-73.5498 46.7734-73.5498C45.4307-73.5498 43.8984-73.1816 42.6582-72.8584C38.9668-71.9346 23.3847-66.1689 19.6055-64.5791C15.9365-63.0284 14.0322-61.3896 14.0322-56.8144L14.0322-27.8242C14.0322-13.4766 21.9189-7.74902 44.0625 4.12696C45.1279 4.69531 46.1572 4.93457 46.7734 4.93457ZM46.7734-4.06641C46.249-4.06641 45.7334-4.19531 44.4854-4.90136C27.0517-15.4306 21.9941-18.2656 21.9941-29.4893L21.9941-55.4873C21.9941-56.5069 22.2334-56.959 23.085-57.3272C29.0801-59.6895 39.46-63.0146 44.9014-65.1533C45.6885-65.4278 46.2422-65.5205 46.7734-65.5205C47.3046-65.5205 47.8584-65.4278 48.6455-65.1533C54.0468-63.0146 64.3066-59.4492 70.4218-57.3272C71.3135-56.999 71.5127-56.5069 71.5127-55.4873L71.5127-29.4893C71.5127-18.1953 66.2442-15.1494 49.0215-4.90136C47.8135-4.2041 47.2979-4.06641 46.7734-4.06641ZM33.1094-21.5547C33.1094-18.6699 34.374-17.3252 37.0235-17.3252L56.5323-17.3252C59.1728-17.3252 60.4375-18.6699 60.4375-21.5547L60.4375-36.2949C60.4375-38.8301 59.4385-40.166 57.3867-40.374L57.3867-44.5039C57.3867-51.6866 53.081-56.5029 46.7734-56.5029C40.4258-56.5029 36.1689-51.6866 36.1689-44.5039L36.1689-40.3828C34.1084-40.166 33.1094-38.8301 33.1094-36.2949ZM41.0117-40.4668L41.0117-44.9395C41.0117-49.0703 43.3086-51.8066 46.7734-51.8066C50.2471-51.8066 52.544-49.0791 52.544-44.9395L52.544-40.4668Z"/>
  </g>
  <g id="Regular-S" transform="matrix(1 0 0 1 1402.53 696)">
   <path d="M46.3867 4.78516C46.9238 4.78516 47.9004 4.58984 48.9746 4.00391C70.8984-8.00781 78.6621-13.4766 78.6621-27.9297L78.6621-57.3242C78.6621-61.3281 76.7578-62.5488 73.7305-63.8672C69.7754-65.5762 53.6133-71.2891 49.6582-72.6562C48.6328-72.998 47.5098-73.2422 46.3867-73.2422C45.2637-73.2422 44.0918-72.9004 43.1152-72.6562C39.1602-71.6797 22.998-65.5273 19.043-63.8672C16.0156-62.5977 14.1113-61.3281 14.1113-57.3242L14.1113-27.9297C14.1113-13.4766 21.875-8.05664 43.7988 4.00391C44.873 4.58984 45.8496 4.78516 46.3867 4.78516ZM46.3867-3.22266C45.8008-3.22266 45.2148-3.36914 43.8965-4.10156C26.2695-14.6484 21.0449-17.7734 21.0449-29.6387L21.0449-56.0059C21.0449-56.8848 21.2402-57.2754 22.0215-57.6172C28.2715-60.0586 38.8184-63.4277 45.0684-65.918C45.5566-66.1133 45.9961-66.1621 46.3867-66.1621C46.7773-66.1621 47.2168-66.1133 47.7051-65.918C53.9062-63.4277 64.3066-59.7656 70.7031-57.6172C71.5332-57.3242 71.6797-56.8848 71.6797-56.0059L71.6797-29.6387C71.6797-17.7734 66.4551-14.6484 48.8281-4.10156C47.5586-3.36914 46.9727-3.22266 46.3867-3.22266ZM32.6172-21.0449C32.6172-18.2129 33.8379-16.8945 36.4258-16.8945L56.3477-16.8945C58.9355-16.8945 60.1562-18.2129 60.1562-21.0449L60.1562-36.084C60.1562-38.6719 59.1309-39.9902 56.9824-40.1367L56.9824-44.4336C56.9824-51.6602 52.6855-56.4941 46.3867-56.4941C40.0391-56.4941 35.791-51.6602 35.791-44.4336L35.791-40.1367C33.6426-39.9902 32.6172-38.6719 32.6172-36.084ZM40.1855-40.1855L40.1855-44.9219C40.1855-49.3164 42.6758-52.2461 46.3867-52.2461C50.0977-52.2461 52.5879-49.3164 52.5879-44.9219L52.5879-40.1855Z"/>
  </g>
  <g id="Light-S" transform="matrix(1 0 0 1 1107.27 696)">
   <path d="M45.2212 4.11915C45.8642 4.11915 46.8408 3.83301 47.7788 3.30763C69.3393-8.94627 76.6338-13.8701 76.6338-27.4151L76.6338-56.5976C76.6338-60.6772 75.002-61.9585 71.6265-63.3526C66.6421-65.3946 53.3257-70.2295 48.3262-71.9751C47.3159-72.3169 46.2837-72.561 45.2212-72.561C44.1587-72.561 43.0928-72.2495 42.1162-71.9751C37.1319-70.4385 23.8003-65.3608 18.8008-63.3526C15.4404-62.0074 13.8086-60.6772 13.8086-56.5976L13.8086-27.4151C13.8086-13.8701 21.1484-9.07079 42.6636 3.30763C43.6015 3.83301 44.5781 4.11915 45.2212 4.11915ZM45.2212-1.96632C44.605-1.96632 43.9433-2.21876 42.8975-2.83009C25.1948-13.7402 19.168-16.8955 19.168-28.5791L19.168-55.5821C19.168-57.1724 19.4844-57.8052 20.7197-58.3135C26.1524-60.4521 38.0767-64.5781 43.5396-66.7202C44.1792-66.9912 44.7852-67.1006 45.2212-67.1006C45.6572-67.1006 46.2329-66.9761 46.8877-66.7202C52.3169-64.5781 64.1401-60.25 69.689-58.3135C70.958-57.8389 71.2407-57.1724 71.2407-55.5821L71.2407-28.5791C71.2407-16.8955 65.1836-13.7856 47.5112-2.83009C46.499-2.21876 45.8374-1.96632 45.2212-1.96632ZM31.3609-20.939C31.3609-18.001 32.6421-16.6675 35.3208-16.6675L55.0913-16.6675C57.77-16.6675 59.0512-18.001 59.0512-20.939L59.0512-36.311C59.0512-39.0957 57.9048-40.4292 55.5293-40.5303L55.5293-45.2661C55.5293-52.1748 51.3535-56.7666 45.2061-56.7666C39.0401-56.7666 34.8979-52.1748 34.8979-45.2661L34.8979-40.5303C32.5073-40.4292 31.3609-39.0957 31.3609-36.311ZM38.5205-40.5639L38.5205-45.603C38.5205-50.1943 41.2075-53.2451 45.2061-53.2451C49.2198-53.2451 51.9067-50.1943 51.9067-45.603L51.9067-40.5639Z"/>
  </g>
  <g id="Thin-S" transform="matrix(1 0 0 1 812.483 696)">
   <path d="M43.6797 3.2383C44.4629 3.2383 45.4395 2.83204 46.1973 2.38674C67.2773-10.1875 73.9512-14.3906 73.9512-26.7344L73.9512-55.6367C73.9512-59.8164 72.6797-61.1777 68.8438-62.6719C62.4981-65.1543 52.9453-68.8282 46.5644-71.0742C45.5743-71.416 44.6622-71.6601 43.6797-71.6601C42.6973-71.6601 41.7715-71.3887 40.7949-71.0742C34.4492-68.7969 24.8613-65.1406 18.4805-62.6719C14.6797-61.2266 13.4082-59.8164 13.4082-55.6367L13.4082-26.7344C13.4082-14.3906 20.1875-10.4121 41.1621 2.38674C41.9199 2.83204 42.8965 3.2383 43.6797 3.2383ZM43.6797-0.304711C43.0235-0.304711 42.2617-0.697287 41.5762-1.14846C23.7734-12.539 16.6856-15.7344 16.6856-27.1778L16.6856-55.0215C16.6856-57.5528 17.1621-58.5058 18.998-59.2343C23.3496-60.9726 37.0957-66.0996 41.5176-67.7813C42.3574-68.1523 43.1836-68.3418 43.6797-68.3418C44.1758-68.3418 44.9317-68.1171 45.8066-67.7813C50.2148-66.0996 63.9199-60.8906 68.3477-59.2343C70.1973-58.5196 70.6602-57.5528 70.6602-55.0215L70.6602-27.1778C70.6602-15.7344 63.502-12.6446 45.7696-1.14846C45.0977-0.697287 44.336-0.304711 43.6797-0.304711ZM29.6993-20.7989C29.6993-17.7207 31.0606-16.3672 33.8594-16.3672L53.4297-16.3672C56.2285-16.3672 57.5898-17.7207 57.5898-20.7989L57.5898-36.6113C57.5898-39.6562 56.2833-41.0097 53.6075-41.0508L53.6075-46.3671C53.6075-52.8555 49.5918-57.1269 43.6446-57.1269C37.7188-57.1269 33.7168-52.8555 33.7168-46.3671L33.7168-41.0508C31.0059-41.0097 29.6993-39.6562 29.6993-36.6113ZM36.3184-41.0644L36.3184-46.5039C36.3184-51.3555 39.2656-54.5664 43.6446-54.5664C48.0586-54.5664 51.0058-51.3555 51.0058-46.5039L51.0058-41.0644Z"/>
  </g>
  <g id="Ultralight-S" transform="matrix(1 0 0 1 516.756 696)">
   <path d="M42.8902 2.78713C43.7451 2.78713 44.7217 2.31935 45.3872 1.91506C66.2212-10.8232 72.5772-14.6572 72.5772-26.3858L72.5772-55.1445C72.5772-59.3755 71.4903-60.7778 67.4185-62.3233C60.3756-65.0313 52.7505-68.1104 45.6621-70.6128C44.6822-70.9546 43.8316-71.1987 42.8902-71.1987C41.9488-71.1987 41.0948-70.9478 40.1182-70.6128C33.0752-67.9561 25.4048-65.0278 18.3164-62.3233C14.2901-60.8267 13.2031-59.3755 13.2031-55.1445L13.2031-26.3858C13.2031-14.6572 19.6953-11.0991 40.3931 1.91506C41.0586 2.31935 42.0352 2.78713 42.8902 2.78713ZM42.8902 0.546357C42.2134 0.546357 41.4004 0.0820041 40.8994-0.287139C23.0454-11.9238 15.4141-15.1397 15.4141-26.46L15.4141-54.7344C15.4141-57.7476 15.9727-58.8647 18.1162-59.706C21.9141-61.2392 36.5933-66.8789 40.482-68.3247C41.4243-68.747 42.3633-68.9775 42.8902-68.9775C43.417-68.9775 44.2652-68.7016 45.2529-68.3247C49.1382-66.8789 63.8071-61.2187 67.6607-59.706C69.8076-58.8682 70.3628-57.7476 70.3628-54.7344L70.3628-26.46C70.3628-15.1397 62.6407-12.0601 44.8775-0.287139C44.3799 0.0820041 43.5669 0.546357 42.8902 0.546357ZM28.8482-20.7271C28.8482-17.5772 30.2505-16.2134 33.1109-16.2134L52.5786-16.2134C55.439-16.2134 56.8413-17.5772 56.8413-20.7271L56.8413-36.7651C56.8413-39.9433 55.4527-41.3071 52.6231-41.3174L52.6231-46.9311C52.6231-53.2041 48.6895-57.3115 42.8448-57.3115C37.042-57.3115 33.1118-53.2041 33.1118-46.9311L33.1118-41.3174C30.2368-41.3071 28.8482-39.9433 28.8482-36.7651ZM35.1905-41.3208L35.1905-46.9653C35.1905-51.9502 38.271-55.2431 42.8448-55.2431C47.4639-55.2431 50.5444-51.9502 50.5444-46.9653L50.5444-41.3208Z"/>
  </g>
 </g>
</svg>
